{"asset":{"version":"2.0","generator":"babylon.js glTF exporter for 3dsmax 2021 v20200917.1"},"scene":0,"scenes":[{"nodes":[0,1]}],"nodes":[{"mesh":0,"rotation":[-5.33850759E-08,-0.7071068,0.7071068,-5.33850759E-08],"scale":[0.099999994,0.099999994,0.099999994],"name":"Pxp-bg"},{"name":"Default light"}],"meshes":[{"primitives":[{"attributes":{"POSITION":1,"NORMAL":2,"TEXCOORD_0":3},"indices":0}],"name":"Pxp-bg"}],"accessors":[{"bufferView":0,"componentType":5125,"count":359490,"type":"SCALAR","name":"accessorIndices"},{"bufferView":1,"componentType":5126,"count":359490,"max":[7.097498,5.268049,-3.05175774E-07],"min":[-7.09749746,-5.268049,-9.274187],"type":"VEC3","name":"accessorPositions"},{"bufferView":1,"byteOffset":4313880,"componentType":5126,"count":359490,"type":"VEC3","name":"accessorNormals"},{"bufferView":2,"componentType":5126,"count":359490,"type":"VEC2","name":"accessorUVs"}],"bufferViews":[{"buffer":0,"byteLength":1437960,"name":"bufferViewScalar"},{"buffer":0,"byteOffset":1437960,"byteLength":8627760,"byteStride":12,"name":"bufferViewFloatVec3"},{"buffer":0,"byteOffset":10065720,"byteLength":2875920,"byteStride":8,"name":"bufferViewFloatVec2"}],"buffers":[{"uri":"pxpbg3d.bin","byteLength":12941640}]}