{"asset":{"version":"2.0","generator":"babylon.js glTF exporter for 3dsmax 2021 v20200917.1"},"scene":0,"scenes":[{"nodes":[0,1,2,3,4]}],"nodes":[{"mesh":0,"rotation":[0.7071068,-3.09086161E-08,3.090862E-08,0.7071067],"scale":[0.099999994,-0.099999994,0.099999994],"name":"b_p2rn"},{"mesh":1,"rotation":[0.7071068,-3.09086161E-08,3.090862E-08,0.7071067],"scale":[0.099999994,-0.099999994,0.099999994],"name":"pokryshki008"},{"mesh":2,"rotation":[0.7071068,-3.09086161E-08,3.090862E-08,0.7071067],"scale":[0.099999994,-0.099999994,0.099999994],"name":"stoiki008"},{"mesh":3,"rotation":[0.7071068,-3.09086161E-08,3.090862E-08,0.7071067],"scale":[0.099999994,-0.099999994,0.099999994],"name":"pokryshki009"},{"name":"Default light"}],"meshes":[{"primitives":[{"attributes":{"POSITION":1,"NORMAL":2,"TEXCOORD_0":3},"indices":0}],"name":"b_p2rn"},{"primitives":[{"attributes":{"POSITION":5,"NORMAL":6,"TEXCOORD_0":7},"indices":4}],"name":"pokryshki008"},{"primitives":[{"attributes":{"POSITION":9,"NORMAL":10,"TEXCOORD_0":11},"indices":8}],"name":"stoiki008"},{"primitives":[{"attributes":{"POSITION":13,"NORMAL":14,"TEXCOORD_0":15},"indices":12}],"name":"pokryshki009"}],"accessors":[{"bufferView":0,"componentType":5123,"count":24192,"type":"SCALAR","name":"accessorIndices"},{"bufferView":1,"componentType":5126,"count":24192,"max":[4.997023,5.800001,-0.8889934],"min":[-4.997023,-5.84999847,-7.033993],"type":"VEC3","name":"accessorPositions"},{"bufferView":1,"byteOffset":290304,"componentType":5126,"count":24192,"type":"VEC3","name":"accessorNormals"},{"bufferView":2,"componentType":5126,"count":24192,"type":"VEC2","name":"accessorUVs"},{"bufferView":0,"byteOffset":48384,"componentType":5123,"count":30978,"type":"SCALAR","name":"accessorIndices"},{"bufferView":1,"byteOffset":580608,"componentType":5126,"count":30978,"max":[1.0,6.290001,-1.52587887E-07],"min":[-4.03974676,-6.29,-1.99798644],"type":"VEC3","name":"accessorPositions"},{"bufferView":1,"byteOffset":952344,"componentType":5126,"count":30978,"type":"VEC3","name":"accessorNormals"},{"bufferView":2,"byteOffset":193536,"componentType":5126,"count":30978,"type":"VEC2","name":"accessorUVs"},{"bufferView":0,"byteOffset":110340,"componentType":5125,"count":143106,"type":"SCALAR","name":"accessorIndices"},{"bufferView":1,"byteOffset":1324080,"componentType":5126,"count":143106,"max":[4.26500034,6.424001,-0.215001211],"min":[-4.265,-6.42400026,-6.911993],"type":"VEC3","name":"accessorPositions"},{"bufferView":1,"byteOffset":3041352,"componentType":5126,"count":143106,"type":"VEC3","name":"accessorNormals"},{"bufferView":2,"byteOffset":441360,"componentType":5126,"count":143106,"type":"VEC2","name":"accessorUVs"},{"bufferView":0,"byteOffset":682764,"componentType":5123,"count":16452,"type":"SCALAR","name":"accessorIndices"},{"bufferView":1,"byteOffset":4758624,"componentType":5126,"count":16452,"max":[4.039747,5.815001,-0.07899322],"min":[2.200253,-5.815,-1.9179821],"type":"VEC3","name":"accessorPositions"},{"bufferView":1,"byteOffset":4956048,"componentType":5126,"count":16452,"type":"VEC3","name":"accessorNormals"},{"bufferView":2,"byteOffset":1586208,"componentType":5126,"count":16452,"type":"VEC2","name":"accessorUVs"}],"bufferViews":[{"buffer":0,"byteLength":715668,"name":"bufferViewScalar"},{"buffer":0,"byteOffset":715668,"byteLength":5153472,"byteStride":12,"name":"bufferViewFloatVec3"},{"buffer":0,"byteOffset":5869140,"byteLength":1717824,"byteStride":8,"name":"bufferViewFloatVec2"}],"buffers":[{"uri":"p2rn.bin","byteLength":7586964}]}