{"asset":{"version":"2.0","generator":"babylon.js glTF exporter for 3dsmax 2021 v20200917.1"},"scene":0,"scenes":[{"nodes":[0,1]}],"nodes":[{"mesh":0,"rotation":[0.7071068,0.0,0.0,0.7071067],"scale":[0.099999994,-0.099999994,0.099999994],"name":" P2rn-1x085m"},{"name":"Default light"}],"meshes":[{"primitives":[{"attributes":{"POSITION":1,"NORMAL":2,"TEXCOORD_0":3},"indices":0}],"name":" P2rn-1x085m"}],"accessors":[{"bufferView":0,"componentType":5125,"count":214728,"type":"SCALAR","name":"accessorIndices"},{"bufferView":1,"componentType":5126,"count":214728,"max":[4.997023,6.424001,-1.52587887E-07],"min":[-4.997023,-6.42400026,-7.033993],"type":"VEC3","name":"accessorPositions"},{"bufferView":1,"byteOffset":2576736,"componentType":5126,"count":214728,"type":"VEC3","name":"accessorNormals"},{"bufferView":2,"componentType":5126,"count":214728,"type":"VEC2","name":"accessorUVs"}],"bufferViews":[{"buffer":0,"byteLength":858912,"name":"bufferViewScalar"},{"buffer":0,"byteOffset":858912,"byteLength":5153472,"byteStride":12,"name":"bufferViewFloatVec3"},{"buffer":0,"byteOffset":6012384,"byteLength":1717824,"byteStride":8,"name":"bufferViewFloatVec2"}],"buffers":[{"uri":"p2rn.bin","byteLength":7730208}]}