{"asset":{"version":"2.0","generator":"babylon.js glTF exporter for 3dsmax 2021 v20200917.1"},"scene":0,"scenes":[{"nodes":[0,1]}],"nodes":[{"mesh":0,"rotation":[-0.5,-0.5,0.5,-0.5],"scale":[0.099999994,0.099999994,0.099999994],"name":" P2pm-2n"},{"name":"Default light"}],"meshes":[{"primitives":[{"attributes":{"POSITION":1,"NORMAL":2,"TEXCOORD_0":3},"indices":0}],"name":" P2pm-2n"}],"accessors":[{"bufferView":0,"componentType":5125,"count":503550,"type":"SCALAR","name":"accessorIndices"},{"bufferView":1,"componentType":5126,"count":503550,"max":[4.08275,10.46837,0.0],"min":[-4.08275,-13.1849995,-8.292211],"type":"VEC3","name":"accessorPositions"},{"bufferView":1,"byteOffset":6042600,"componentType":5126,"count":503550,"type":"VEC3","name":"accessorNormals"},{"bufferView":2,"componentType":5126,"count":503550,"type":"VEC2","name":"accessorUVs"}],"bufferViews":[{"buffer":0,"byteLength":2014200,"name":"bufferViewScalar"},{"buffer":0,"byteOffset":2014200,"byteLength":12085200,"byteStride":12,"name":"bufferViewFloatVec3"},{"buffer":0,"byteOffset":14099400,"byteLength":4028400,"byteStride":8,"name":"bufferViewFloatVec2"}],"buffers":[{"uri":"p2pm2n.bin","byteLength":18127800}]}