{"asset":{"version":"2.0","generator":"babylon.js glTF exporter for 3dsmax 2021 v20200917.1"},"scene":0,"scenes":[{"nodes":[0,1,2,3,4]}],"nodes":[{"mesh":0,"rotation":[-0.5,-0.5,0.5,-0.5],"scale":[0.099999994,0.099999994,0.099999994],"name":"baza001"},{"mesh":1,"rotation":[-0.5,-0.5,0.5,-0.5],"scale":[0.099999994,0.099999994,0.099999994],"name":"pokryshki001"},{"mesh":2,"rotation":[-0.5,-0.5,0.5,-0.5],"scale":[0.099999994,0.099999994,0.099999994],"name":"kolpaki001"},{"mesh":3,"rotation":[-0.5,-0.5,0.5,-0.5],"scale":[0.099999994,0.099999994,0.099999994],"name":"stoiki001"},{"name":"Default light"}],"meshes":[{"primitives":[{"attributes":{"POSITION":1,"NORMAL":2,"TEXCOORD_0":3},"indices":0}],"name":"baza001"},{"primitives":[{"attributes":{"POSITION":5,"NORMAL":6,"TEXCOORD_0":7},"indices":4}],"name":"pokryshki001"},{"primitives":[{"attributes":{"POSITION":9,"NORMAL":10,"TEXCOORD_0":11},"indices":8}],"name":"kolpaki001"},{"primitives":[{"attributes":{"POSITION":13,"NORMAL":14,"TEXCOORD_0":15},"indices":12}],"name":"stoiki001"}],"accessors":[{"bufferView":0,"componentType":5125,"count":74355,"type":"SCALAR","name":"accessorIndices"},{"bufferView":1,"componentType":5126,"count":74355,"max":[4.05774975,10.46837,-0.78],"min":[-4.04775,-10.46837,-8.292211],"type":"VEC3","name":"accessorPositions"},{"bufferView":1,"byteOffset":892260,"componentType":5126,"count":74355,"type":"VEC3","name":"accessorNormals"},{"bufferView":2,"componentType":5126,"count":74355,"type":"VEC2","name":"accessorUVs"},{"bufferView":0,"byteOffset":297420,"componentType":5123,"count":33078,"type":"SCALAR","name":"accessorIndices"},{"bufferView":1,"byteOffset":1784520,"componentType":5126,"count":33078,"max":[3.735648,7.099752,0.0],"min":[-3.735648,-7.099752,-1.99956131],"type":"VEC3","name":"accessorPositions"},{"bufferView":1,"byteOffset":2181456,"componentType":5126,"count":33078,"type":"VEC3","name":"accessorNormals"},{"bufferView":2,"byteOffset":594840,"componentType":5126,"count":33078,"type":"VEC2","name":"accessorUVs"},{"bufferView":0,"byteOffset":363576,"componentType":5123,"count":3504,"type":"SCALAR","name":"accessorIndices"},{"bufferView":1,"byteOffset":2578392,"componentType":5126,"count":3504,"max":[3.80774975,9.056934,-0.08918304],"min":[-3.80774975,-8.51,-1.08721],"type":"VEC3","name":"accessorPositions"},{"bufferView":1,"byteOffset":2620440,"componentType":5126,"count":3504,"type":"VEC3","name":"accessorNormals"},{"bufferView":2,"byteOffset":859464,"componentType":5126,"count":3504,"type":"VEC2","name":"accessorUVs"},{"bufferView":0,"byteOffset":370584,"componentType":5125,"count":392613,"type":"SCALAR","name":"accessorIndices"},{"bufferView":1,"byteOffset":2662488,"componentType":5126,"count":392613,"max":[4.08275,10.1482,-0.169176027],"min":[-4.08275,-13.1849995,-6.622223],"type":"VEC3","name":"accessorPositions"},{"bufferView":1,"byteOffset":7373844,"componentType":5126,"count":392613,"type":"VEC3","name":"accessorNormals"},{"bufferView":2,"byteOffset":887496,"componentType":5126,"count":392613,"type":"VEC2","name":"accessorUVs"}],"bufferViews":[{"buffer":0,"byteLength":1941036,"name":"bufferViewScalar"},{"buffer":0,"byteOffset":1941036,"byteLength":12085200,"byteStride":12,"name":"bufferViewFloatVec3"},{"buffer":0,"byteOffset":14026236,"byteLength":4028400,"byteStride":8,"name":"bufferViewFloatVec2"}],"buffers":[{"uri":"p2pm2n.bin","byteLength":18054636}]}