{"asset":{"version":"2.0","generator":"babylon.js glTF exporter for 3dsmax 2021 v20200917.1"},"scene":0,"scenes":[{"nodes":[0,1,2,3,4]}],"nodes":[{"mesh":0,"rotation":[-5.33850759E-08,-0.7071068,0.7071068,-5.33850759E-08],"scale":[0.099999994,0.099999994,0.099999994],"name":"baza"},{"mesh":1,"rotation":[-5.33850759E-08,-0.7071068,0.7071068,-5.33850759E-08],"scale":[0.099999994,0.099999994,0.099999994],"name":"pokryshki"},{"mesh":2,"rotation":[-5.33850759E-08,-0.7071068,0.7071068,-5.33850759E-08],"scale":[0.099999994,0.099999994,0.099999994],"name":"kolpaki"},{"mesh":3,"rotation":[-5.33850759E-08,-0.7071068,0.7071068,-5.33850759E-08],"scale":[0.099999994,0.099999994,0.099999994],"name":"stoiki"},{"name":"Default light"}],"meshes":[{"primitives":[{"attributes":{"POSITION":1,"NORMAL":2,"TEXCOORD_0":3},"indices":0}],"name":"baza"},{"primitives":[{"attributes":{"POSITION":5,"NORMAL":6,"TEXCOORD_0":7},"indices":4}],"name":"pokryshki"},{"primitives":[{"attributes":{"POSITION":9,"NORMAL":10,"TEXCOORD_0":11},"indices":8}],"name":"kolpaki"},{"primitives":[{"attributes":{"POSITION":13,"NORMAL":14,"TEXCOORD_0":15},"indices":12}],"name":"stoiki"}],"accessors":[{"bufferView":0,"componentType":5123,"count":48216,"type":"SCALAR","name":"accessorIndices"},{"bufferView":1,"componentType":5126,"count":48216,"max":[7.097498,5.268049,-2.38450027],"min":[-7.09749746,-5.268049,-9.274187],"type":"VEC3","name":"accessorPositions"},{"bufferView":1,"byteOffset":578592,"componentType":5126,"count":48216,"type":"VEC3","name":"accessorNormals"},{"bufferView":2,"componentType":5126,"count":48216,"type":"VEC2","name":"accessorUVs"},{"bufferView":0,"byteOffset":96432,"componentType":5123,"count":29712,"type":"SCALAR","name":"accessorIndices"},{"bufferView":1,"byteOffset":1157184,"componentType":5126,"count":29712,"max":[6.43448448,4.605002,-3.05175774E-07],"min":[-6.836996,-4.605,-2.02445674],"type":"VEC3","name":"accessorPositions"},{"bufferView":1,"byteOffset":1513728,"componentType":5126,"count":29712,"type":"VEC3","name":"accessorNormals"},{"bufferView":2,"byteOffset":385728,"componentType":5126,"count":29712,"type":"VEC2","name":"accessorUVs"},{"bufferView":0,"byteOffset":155856,"componentType":5125,"count":68448,"type":"SCALAR","name":"accessorIndices"},{"bufferView":1,"byteOffset":1870272,"componentType":5126,"count":68448,"max":[6.23947763,4.669998,-0.1950003],"min":[-6.642452,-4.67,-1.82898581],"type":"VEC3","name":"accessorPositions"},{"bufferView":1,"byteOffset":2691648,"componentType":5126,"count":68448,"type":"VEC3","name":"accessorNormals"},{"bufferView":2,"byteOffset":623424,"componentType":5126,"count":68448,"type":"VEC2","name":"accessorUVs"},{"bufferView":0,"byteOffset":429648,"componentType":5125,"count":213114,"type":"SCALAR","name":"accessorIndices"},{"bufferView":1,"byteOffset":3513024,"componentType":5126,"count":213114,"max":[6.585502,4.95000172,-0.7595834],"min":[-7.092498,-4.95000029,-3.17041445],"type":"VEC3","name":"accessorPositions"},{"bufferView":1,"byteOffset":6070392,"componentType":5126,"count":213114,"type":"VEC3","name":"accessorNormals"},{"bufferView":2,"byteOffset":1171008,"componentType":5126,"count":213114,"type":"VEC2","name":"accessorUVs"}],"bufferViews":[{"buffer":0,"byteLength":1282104,"name":"bufferViewScalar"},{"buffer":0,"byteOffset":1282104,"byteLength":8627760,"byteStride":12,"name":"bufferViewFloatVec3"},{"buffer":0,"byteOffset":9909864,"byteLength":2875920,"byteStride":8,"name":"bufferViewFloatVec2"}],"buffers":[{"uri":"phrbg.bin","byteLength":12785784}]}