{"asset":{"version":"2.0","generator":"babylon.js glTF exporter for 3dsmax 2021 v20200917.1"},"scene":0,"scenes":[{"nodes":[0,1,2,3,4]}],"nodes":[{"mesh":0,"scale":[0.099999994,0.099999994,0.099999994],"name":"baza002"},{"mesh":1,"scale":[0.099999994,0.099999994,0.099999994],"name":"pokryshki002"},{"mesh":2,"scale":[0.099999994,0.099999994,0.099999994],"name":"kolpaki002"},{"mesh":3,"scale":[0.099999994,0.099999994,0.099999994],"name":"stoiki002"},{"name":"Default light"}],"meshes":[{"primitives":[{"attributes":{"POSITION":1,"NORMAL":2,"TEXCOORD_0":3},"indices":0}],"name":"baza002"},{"primitives":[{"attributes":{"POSITION":5,"NORMAL":6,"TEXCOORD_0":7},"indices":4}],"name":"pokryshki002"},{"primitives":[{"attributes":{"POSITION":9,"NORMAL":10,"TEXCOORD_0":11},"indices":8}],"name":"kolpaki002"},{"primitives":[{"attributes":{"POSITION":13,"NORMAL":14,"TEXCOORD_0":15},"indices":12}],"name":"stoiki002"}],"accessors":[{"bufferView":0,"componentType":5125,"count":117594,"type":"SCALAR","name":"accessorIndices"},{"bufferView":1,"componentType":5126,"count":117594,"max":[14.524065,15.32,3.83809376],"min":[-11.564065,0.747135,-3.83809376],"type":"VEC3","name":"accessorPositions"},{"bufferView":1,"byteOffset":1411128,"componentType":5126,"count":117594,"type":"VEC3","name":"accessorNormals"},{"bufferView":2,"componentType":5126,"count":117594,"type":"VEC2","name":"accessorUVs"},{"bufferView":0,"byteOffset":470376,"componentType":5125,"count":81048,"type":"SCALAR","name":"accessorIndices"},{"bufferView":1,"byteOffset":2822256,"componentType":5126,"count":81048,"max":[11.4206867,1.99956083,3.70064783],"min":[-8.328817,0.0,-3.70064783],"type":"VEC3","name":"accessorPositions"},{"bufferView":1,"byteOffset":3794832,"componentType":5126,"count":81048,"type":"VEC3","name":"accessorNormals"},{"bufferView":2,"byteOffset":940752,"componentType":5126,"count":81048,"type":"VEC2","name":"accessorUVs"},{"bufferView":0,"byteOffset":794568,"componentType":5123,"count":18444,"type":"SCALAR","name":"accessorIndices"},{"bufferView":1,"byteOffset":4767408,"componentType":5126,"count":18444,"max":[13.0179338,1.3493737,3.441763],"min":[-10.7308149,0.100626066,-3.441763],"type":"VEC3","name":"accessorPositions"},{"bufferView":1,"byteOffset":4988736,"componentType":5126,"count":18444,"type":"VEC3","name":"accessorNormals"},{"bufferView":2,"byteOffset":1589136,"componentType":5126,"count":18444,"type":"VEC2","name":"accessorUVs"},{"bufferView":0,"byteOffset":831456,"componentType":5125,"count":716316,"type":"SCALAR","name":"accessorIndices"},{"bufferView":1,"byteOffset":5210064,"componentType":5126,"count":716316,"max":[14.4409351,14.14505,3.93399978],"min":[-14.524065,0.200475,-3.93399978],"type":"VEC3","name":"accessorPositions"},{"bufferView":1,"byteOffset":13805856,"componentType":5126,"count":716316,"type":"VEC3","name":"accessorNormals"},{"bufferView":2,"byteOffset":1736688,"componentType":5126,"count":716316,"type":"VEC2","name":"accessorUVs"}],"bufferViews":[{"buffer":0,"byteLength":3696720,"name":"bufferViewScalar"},{"buffer":0,"byteOffset":3696720,"byteLength":22401648,"byteStride":12,"name":"bufferViewFloatVec3"},{"buffer":0,"byteOffset":26098368,"byteLength":7467216,"byteStride":8,"name":"bufferViewFloatVec2"}],"buffers":[{"uri":"p3rpsh.bin","byteLength":33565584}]}