{"asset":{"version":"2.0","generator":"babylon.js glTF exporter for 3dsmax 2021 v20200917.1"},"scene":0,"scenes":[{"nodes":[0,1]}],"nodes":[{"mesh":0,"scale":[0.099999994,0.099999994,0.099999994],"name":"P3rpsh"},{"name":"Default light"}],"meshes":[{"primitives":[{"attributes":{"POSITION":1,"NORMAL":2,"TEXCOORD_0":3},"indices":0}],"name":"P3rpsh"}],"accessors":[{"bufferView":0,"componentType":5125,"count":933402,"type":"SCALAR","name":"accessorIndices"},{"bufferView":1,"componentType":5126,"count":933402,"max":[14.524065,15.32,3.93399978],"min":[-14.524065,0.0,-3.93399978],"type":"VEC3","name":"accessorPositions"},{"bufferView":1,"byteOffset":11200824,"componentType":5126,"count":933402,"type":"VEC3","name":"accessorNormals"},{"bufferView":2,"componentType":5126,"count":933402,"type":"VEC2","name":"accessorUVs"}],"bufferViews":[{"buffer":0,"byteLength":3733608,"name":"bufferViewScalar"},{"buffer":0,"byteOffset":3733608,"byteLength":22401648,"byteStride":12,"name":"bufferViewFloatVec3"},{"buffer":0,"byteOffset":26135256,"byteLength":7467216,"byteStride":8,"name":"bufferViewFloatVec2"}],"buffers":[{"uri":"p3rpsh.bin","byteLength":33602472}]}