{"asset":{"version":"2.0","generator":"babylon.js glTF exporter for 3dsmax 2021 v20210225.1"},"scene":0,"scenes":[{"nodes":[0,1,2,3]}],"nodes":[{"mesh":0,"rotation":[-0.5000001,0.0,0.0,0.8660253],"scale":[0.099999994,0.1,0.1],"name":"wheels"},{"mesh":1,"rotation":[-0.5000001,0.0,0.0,0.8660253],"scale":[0.099999994,0.1,0.1],"name":"zhelezki"},{"mesh":2,"rotation":[-0.5000001,0.0,0.0,0.8660253],"scale":[0.099999994,0.1,0.1],"name":"Krasnenkye"},{"mesh":3,"rotation":[-0.5000001,0.0,0.0,0.8660253],"scale":[0.099999994,0.1,0.1],"name":"Serebro"}],"meshes":[{"primitives":[{"attributes":{"POSITION":1,"NORMAL":2,"TEXCOORD_0":3},"indices":0}],"name":"wheels"},{"primitives":[{"attributes":{"POSITION":5,"NORMAL":6,"TEXCOORD_0":7},"indices":4}],"name":"zhelezki"},{"primitives":[{"attributes":{"POSITION":9,"NORMAL":10,"TEXCOORD_0":11},"indices":8}],"name":"Krasnenkye"},{"primitives":[{"attributes":{"POSITION":13,"NORMAL":14,"TEXCOORD_0":15},"indices":12}],"name":"Serebro"}],"accessors":[{"bufferView":0,"componentType":5123,"count":40050,"type":"SCALAR","name":"accessorIndices"},{"bufferView":1,"componentType":5126,"count":40050,"max":[3.5,1.089018,1.095],"min":[-3.5,-1.089018,-1.08499992],"type":"VEC3","name":"accessorPositions"},{"bufferView":1,"byteOffset":480600,"componentType":5126,"count":40050,"type":"VEC3","name":"accessorNormals"},{"bufferView":2,"componentType":5126,"count":40050,"type":"VEC2","name":"accessorUVs"},{"bufferView":0,"byteOffset":80100,"componentType":5125,"count":81897,"type":"SCALAR","name":"accessorIndices"},{"bufferView":1,"byteOffset":961200,"componentType":5126,"count":81897,"max":[2.146,0.825,0.434000015],"min":[-2.146,-0.825,-0.4159982],"type":"VEC3","name":"accessorPositions"},{"bufferView":1,"byteOffset":1943964,"componentType":5126,"count":81897,"type":"VEC3","name":"accessorNormals"},{"bufferView":2,"byteOffset":320400,"componentType":5126,"count":81897,"type":"VEC2","name":"accessorUVs"},{"bufferView":0,"byteOffset":407688,"componentType":5123,"count":12120,"type":"SCALAR","name":"accessorIndices"},{"bufferView":1,"byteOffset":2926728,"componentType":5126,"count":12120,"max":[2.875,0.525,0.529751],"min":[-2.875,-0.5240042,-0.519751],"type":"VEC3","name":"accessorPositions"},{"bufferView":1,"byteOffset":3072168,"componentType":5126,"count":12120,"type":"VEC3","name":"accessorNormals"},{"bufferView":2,"byteOffset":975576,"componentType":5126,"count":12120,"type":"VEC2","name":"accessorUVs"},{"bufferView":0,"byteOffset":431928,"componentType":5125,"count":169095,"type":"SCALAR","name":"accessorIndices"},{"bufferView":1,"byteOffset":3217608,"componentType":5126,"count":169095,"max":[3.494,0.45,0.5050555],"min":[-3.494,-0.448995084,-0.4950555],"type":"VEC3","name":"accessorPositions"},{"bufferView":1,"byteOffset":5246748,"componentType":5126,"count":169095,"type":"VEC3","name":"accessorNormals"},{"bufferView":2,"byteOffset":1072536,"componentType":5126,"count":169095,"type":"VEC2","name":"accessorUVs"}],"bufferViews":[{"buffer":0,"byteLength":1108308,"name":"bufferViewScalar"},{"buffer":0,"byteOffset":1108308,"byteLength":7275888,"byteStride":12,"name":"bufferViewFloatVec3"},{"buffer":0,"byteOffset":8384196,"byteLength":2425296,"byteStride":8,"name":"bufferViewFloatVec2"}],"buffers":[{"uri":"uzel_gidravlik.bin","byteLength":10809492}]}