{"asset":{"version":"2.0","generator":"babylon.js glTF exporter for 3dsmax 2021 v20200917.1"},"scene":0,"scenes":[{"nodes":[0,1,2,3,4]}],"nodes":[{"mesh":0,"rotation":[0.7071068,0.0,0.0,0.7071067],"scale":[0.099999994,0.099999994,0.099999994],"name":"baza005"},{"mesh":1,"rotation":[0.7071068,0.0,0.0,0.7071067],"scale":[0.099999994,0.099999994,0.099999994],"name":"pokryshki006"},{"mesh":2,"rotation":[0.7071068,0.0,0.0,0.7071067],"scale":[0.099999994,0.099999994,0.099999994],"name":"kolpaki005"},{"mesh":3,"rotation":[0.7071068,0.0,0.0,0.7071067],"scale":[0.099999994,0.099999994,0.099999994],"name":"stoiki006"},{"name":"Default light"}],"meshes":[{"primitives":[{"attributes":{"POSITION":1,"NORMAL":2,"TEXCOORD_0":3},"indices":0}],"name":"baza005"},{"primitives":[{"attributes":{"POSITION":5,"NORMAL":6,"TEXCOORD_0":7},"indices":4}],"name":"pokryshki006"},{"primitives":[{"attributes":{"POSITION":9,"NORMAL":10,"TEXCOORD_0":11},"indices":8}],"name":"kolpaki005"},{"primitives":[{"attributes":{"POSITION":13,"NORMAL":14,"TEXCOORD_0":15},"indices":12}],"name":"stoiki006"}],"accessors":[{"bufferView":0,"componentType":5125,"count":78120,"type":"SCALAR","name":"accessorIndices"},{"bufferView":1,"componentType":5126,"count":78120,"max":[11.8211145,4.18999958,-0.769987166],"min":[-9.043345,-4.19,-7.99998569],"type":"VEC3","name":"accessorPositions"},{"bufferView":1,"byteOffset":937440,"componentType":5126,"count":78120,"type":"VEC3","name":"accessorNormals"},{"bufferView":2,"componentType":5126,"count":78120,"type":"VEC2","name":"accessorUVs"},{"bufferView":0,"byteOffset":312480,"componentType":5123,"count":59235,"type":"SCALAR","name":"accessorIndices"},{"bufferView":1,"byteOffset":1874880,"componentType":5126,"count":59235,"max":[8.51356,3.92499971,-1.52587887E-07],"min":[-5.73579168,-3.92500019,-1.999974],"type":"VEC3","name":"accessorPositions"},{"bufferView":1,"byteOffset":2585700,"componentType":5126,"count":59235,"type":"VEC3","name":"accessorNormals"},{"bufferView":2,"byteOffset":624960,"componentType":5126,"count":59235,"type":"VEC2","name":"accessorUVs"},{"bufferView":0,"byteOffset":430952,"componentType":5123,"count":3504,"type":"SCALAR","name":"accessorIndices"},{"bufferView":1,"byteOffset":3296520,"componentType":5126,"count":3504,"max":[10.4338837,3.88499951,-0.08097412],"min":[-7.11611557,-3.88500023,-1.07900012],"type":"VEC3","name":"accessorPositions"},{"bufferView":1,"byteOffset":3338568,"componentType":5126,"count":3504,"type":"VEC3","name":"accessorNormals"},{"bufferView":2,"byteOffset":1098840,"componentType":5126,"count":3504,"type":"VEC2","name":"accessorUVs"},{"bufferView":0,"byteOffset":437960,"componentType":5125,"count":455334,"type":"SCALAR","name":"accessorIndices"},{"bufferView":1,"byteOffset":3380616,"componentType":5126,"count":455334,"max":[11.3313684,4.18999958,-0.160966188],"min":[-11.8211155,-4.19,-2.14998722],"type":"VEC3","name":"accessorPositions"},{"bufferView":1,"byteOffset":8844624,"componentType":5126,"count":455334,"type":"VEC3","name":"accessorNormals"},{"bufferView":2,"byteOffset":1126872,"componentType":5126,"count":455334,"type":"VEC2","name":"accessorUVs"}],"bufferViews":[{"buffer":0,"byteLength":2259296,"name":"bufferViewScalar"},{"buffer":0,"byteOffset":2259296,"byteLength":14308632,"byteStride":12,"name":"bufferViewFloatVec3"},{"buffer":0,"byteOffset":16567928,"byteLength":4769544,"byteStride":8,"name":"bufferViewFloatVec2"}],"buffers":[{"uri":"p1pna.bin","byteLength":21337472}]}