{"asset":{"version":"2.0","generator":"babylon.js glTF exporter for 3dsmax 2021 v20200917.1"},"scene":0,"scenes":[{"nodes":[0,1]}],"nodes":[{"mesh":0,"rotation":[0.7071068,0.0,0.0,0.7071067],"scale":[0.099999994,0.099999994,0.099999994],"name":" P1pna"},{"name":"Default light"}],"meshes":[{"primitives":[{"attributes":{"POSITION":1,"NORMAL":2,"TEXCOORD_0":3},"indices":0}],"name":" P1pna"}],"accessors":[{"bufferView":0,"componentType":5125,"count":596193,"type":"SCALAR","name":"accessorIndices"},{"bufferView":1,"componentType":5126,"count":596193,"max":[11.8211145,4.18999958,-1.52587887E-07],"min":[-11.8211155,-4.19,-7.99998569],"type":"VEC3","name":"accessorPositions"},{"bufferView":1,"byteOffset":7154316,"componentType":5126,"count":596193,"type":"VEC3","name":"accessorNormals"},{"bufferView":2,"componentType":5126,"count":596193,"type":"VEC2","name":"accessorUVs"}],"bufferViews":[{"buffer":0,"byteLength":2384772,"name":"bufferViewScalar"},{"buffer":0,"byteOffset":2384772,"byteLength":14308632,"byteStride":12,"name":"bufferViewFloatVec3"},{"buffer":0,"byteOffset":16693404,"byteLength":4769544,"byteStride":8,"name":"bufferViewFloatVec2"}],"buffers":[{"uri":"p1pna.bin","byteLength":21462948}]}