{"asset":{"version":"2.0","generator":"babylon.js glTF exporter for 3dsmax 2021 v20210225.1"},"scene":0,"scenes":[{"nodes":[0,1,2,3,4,5,6,7]}],"nodes":[{"mesh":0,"translation":[0.00499999942,0.8124999,3.55154981E-08],"rotation":[0.0,-0.7071067,0.7071068,0.0],"scale":[0.099999994,-0.099999994,0.099999994],"name":"HH1018step"},{"mesh":1,"translation":[0.00499999942,0.8124999,3.55154981E-08],"rotation":[0.0,-0.7071067,0.7071068,0.0],"scale":[0.099999994,-0.099999994,0.099999994],"name":"korpus"},{"mesh":2,"translation":[0.00499999942,0.8124999,3.55154981E-08],"rotation":[0.0,-0.7071067,0.7071068,0.0],"scale":[0.099999994,-0.099999994,0.099999994],"name":"yellow"},{"mesh":3,"translation":[0.00499999942,0.8124999,3.55154981E-08],"rotation":[0.0,-0.7071067,0.7071068,0.0],"scale":[0.099999994,-0.099999994,0.099999994],"name":"silver"},{"mesh":4,"translation":[0.00499999942,0.8124999,3.55154981E-08],"rotation":[0.0,-0.7071067,0.7071068,0.0],"scale":[0.099999994,-0.099999994,0.099999994],"name":"black_panel"},{"mesh":5,"translation":[0.00499999942,0.8124999,3.55154981E-08],"rotation":[0.0,-0.7071067,0.7071068,0.0],"scale":[0.099999994,-0.099999994,0.099999994],"name":"blue"},{"mesh":6,"translation":[0.00499999942,0.8124999,3.55154981E-08],"rotation":[0.0,-0.7071067,0.7071068,0.0],"scale":[0.099999994,-0.099999994,0.099999994],"name":"red"},{"mesh":7,"translation":[0.00499999942,0.8124999,3.55154981E-08],"rotation":[0.0,-0.7071067,0.7071068,0.0],"scale":[0.099999994,-0.099999994,0.099999994],"name":"green"}],"meshes":[{"primitives":[{"attributes":{"POSITION":1,"NORMAL":2,"TEXCOORD_0":3},"indices":0}],"name":"HH1018step"},{"primitives":[{"attributes":{"POSITION":5,"NORMAL":6,"TEXCOORD_0":7},"indices":4}],"name":"korpus"},{"primitives":[{"attributes":{"POSITION":9,"NORMAL":10,"TEXCOORD_0":11},"indices":8}],"name":"yellow"},{"primitives":[{"attributes":{"POSITION":13,"NORMAL":14,"TEXCOORD_0":15},"indices":12}],"name":"silver"},{"primitives":[{"attributes":{"POSITION":17,"NORMAL":18,"TEXCOORD_0":19},"indices":16}],"name":"black_panel"},{"primitives":[{"attributes":{"POSITION":21,"NORMAL":22,"TEXCOORD_0":23},"indices":20}],"name":"blue"},{"primitives":[{"attributes":{"POSITION":25,"NORMAL":26,"TEXCOORD_0":27},"indices":24}],"name":"red"},{"primitives":[{"attributes":{"POSITION":29,"NORMAL":30,"TEXCOORD_0":31},"indices":28}],"name":"green"}],"accessors":[{"bufferView":0,"componentType":5125,"count":1661925,"type":"SCALAR","name":"accessorIndices"},{"bufferView":1,"componentType":5126,"count":1661925,"max":[3.984081,10.5455065,7.92499971],"min":[-3.897763,-10.553484,-8.649814],"type":"VEC3","name":"accessorPositions"},{"bufferView":1,"byteOffset":19943100,"componentType":5126,"count":1661925,"type":"VEC3","name":"accessorNormals"},{"bufferView":2,"componentType":5126,"count":1661925,"type":"VEC2","name":"accessorUVs"},{"bufferView":0,"byteOffset":6647700,"componentType":5125,"count":131685,"type":"SCALAR","name":"accessorIndices"},{"bufferView":1,"byteOffset":39886200,"componentType":5126,"count":131685,"max":[4.0,10.01,7.77499962],"min":[-4.0,-10.0099993,-7.77499962],"type":"VEC3","name":"accessorPositions"},{"bufferView":1,"byteOffset":41466420,"componentType":5126,"count":131685,"type":"VEC3","name":"accessorNormals"},{"bufferView":2,"byteOffset":13295400,"componentType":5126,"count":131685,"type":"VEC2","name":"accessorUVs"},{"bufferView":0,"byteOffset":7174440,"componentType":5123,"count":28200,"type":"SCALAR","name":"accessorIndices"},{"bufferView":1,"byteOffset":43046640,"componentType":5126,"count":28200,"max":[4.15000057,10.000021,8.125],"min":[-3.46,-10.0000582,-7.00557947],"type":"VEC3","name":"accessorPositions"},{"bufferView":1,"byteOffset":43385040,"componentType":5126,"count":28200,"type":"VEC3","name":"accessorNormals"},{"bufferView":2,"byteOffset":14348880,"componentType":5126,"count":28200,"type":"VEC2","name":"accessorUVs"},{"bufferView":0,"byteOffset":7230840,"componentType":5123,"count":666,"type":"SCALAR","name":"accessorIndices"},{"bufferView":1,"byteOffset":43723440,"componentType":5126,"count":666,"max":[3.99995375,8.707047,-4.15499973],"min":[3.27965879,7.53399754,-7.355],"type":"VEC3","name":"accessorPositions"},{"bufferView":1,"byteOffset":43731432,"componentType":5126,"count":666,"type":"VEC3","name":"accessorNormals"},{"bufferView":2,"byteOffset":14574480,"componentType":5126,"count":666,"type":"VEC2","name":"accessorUVs"},{"bufferView":0,"byteOffset":7232172,"componentType":5125,"count":161283,"type":"SCALAR","name":"accessorIndices"},{"bufferView":1,"byteOffset":43739424,"componentType":5126,"count":161283,"max":[3.96143937,8.631589,-4.255],"min":[3.24450183,7.52971,-7.585],"type":"VEC3","name":"accessorPositions"},{"bufferView":1,"byteOffset":45674820,"componentType":5126,"count":161283,"type":"VEC3","name":"accessorNormals"},{"bufferView":2,"byteOffset":14579808,"componentType":5126,"count":161283,"type":"VEC2","name":"accessorUVs"},{"bufferView":0,"byteOffset":7877304,"componentType":5123,"count":50262,"type":"SCALAR","name":"accessorIndices"},{"bufferView":1,"byteOffset":47610216,"componentType":5126,"count":50262,"max":[3.84768176,8.326261,-5.49041128],"min":[3.51271272,7.865772,-6.623913],"type":"VEC3","name":"accessorPositions"},{"bufferView":1,"byteOffset":48213360,"componentType":5126,"count":50262,"type":"VEC3","name":"accessorNormals"},{"bufferView":2,"byteOffset":15870072,"componentType":5126,"count":50262,"type":"VEC2","name":"accessorUVs"},{"bufferView":0,"byteOffset":7977828,"componentType":5123,"count":12648,"type":"SCALAR","name":"accessorIndices"},{"bufferView":1,"byteOffset":48816504,"componentType":5126,"count":12648,"max":[3.59601283,7.9170866,-4.475854],"min":[3.39731,7.677328,-5.09585428],"type":"VEC3","name":"accessorPositions"},{"bufferView":1,"byteOffset":48968280,"componentType":5126,"count":12648,"type":"VEC3","name":"accessorNormals"},{"bufferView":2,"byteOffset":16272168,"componentType":5126,"count":12648,"type":"VEC2","name":"accessorUVs"},{"bufferView":0,"byteOffset":8003124,"componentType":5123,"count":12648,"type":"SCALAR","name":"accessorIndices"},{"bufferView":1,"byteOffset":49120056,"componentType":5126,"count":12648,"max":[3.93078732,8.474246,-4.47585344],"min":[3.73208427,8.234488,-5.095854],"type":"VEC3","name":"accessorPositions"},{"bufferView":1,"byteOffset":49271832,"componentType":5126,"count":12648,"type":"VEC3","name":"accessorNormals"},{"bufferView":2,"byteOffset":16373352,"componentType":5126,"count":12648,"type":"VEC2","name":"accessorUVs"}],"bufferViews":[{"buffer":0,"byteLength":8028420,"name":"bufferViewScalar"},{"buffer":0,"byteOffset":8028420,"byteLength":49423608,"byteStride":12,"name":"bufferViewFloatVec3"},{"buffer":0,"byteOffset":57452028,"byteLength":16474536,"byteStride":8,"name":"bufferViewFloatVec2"}],"buffers":[{"uri":"nn1018.bin","byteLength":73926564}]}