{"asset":{"version":"2.0","generator":"babylon.js glTF exporter for 3dsmax 2021 v20200917.1"},"scene":0,"scenes":[{"nodes":[0,1,2,3,4,5,6]}],"nodes":[{"mesh":0,"rotation":[0.7071068,0.0,0.0,0.7071067],"scale":[0.099999994,0.099999994,0.099999994],"name":"baze"},{"mesh":1,"rotation":[0.7071068,0.0,0.0,0.7071067],"scale":[0.099999994,0.099999994,0.099999994],"name":"pokryshki010"},{"mesh":2,"rotation":[0.7071068,0.0,0.0,0.7071067],"scale":[0.099999994,0.099999994,0.099999994],"name":"stoiki009"},{"mesh":3,"rotation":[0.7071068,0.0,0.0,0.7071067],"scale":[0.099999994,0.099999994,0.099999994],"name":"b2_p2rv"},{"mesh":4,"rotation":[0.7071068,0.0,0.0,0.7071067],"scale":[0.099999994,0.099999994,0.099999994],"name":"stoiki010"},{"mesh":5,"rotation":[0.7071068,0.0,0.0,0.7071067],"scale":[0.099999994,0.099999994,0.099999994],"name":"b3_p2rv"},{"name":"Default light"}],"meshes":[{"primitives":[{"attributes":{"POSITION":1,"NORMAL":2,"TEXCOORD_0":3},"indices":0}],"name":"baze"},{"primitives":[{"attributes":{"POSITION":5,"NORMAL":6,"TEXCOORD_0":7},"indices":4}],"name":"pokryshki010"},{"primitives":[{"attributes":{"POSITION":9,"NORMAL":10,"TEXCOORD_0":11},"indices":8}],"name":"stoiki009"},{"primitives":[{"attributes":{"POSITION":13,"NORMAL":14,"TEXCOORD_0":15},"indices":12}],"name":"b2_p2rv"},{"primitives":[{"attributes":{"POSITION":17,"NORMAL":18,"TEXCOORD_0":19},"indices":16}],"name":"stoiki010"},{"primitives":[{"attributes":{"POSITION":21,"NORMAL":22,"TEXCOORD_0":23},"indices":20}],"name":"b3_p2rv"}],"accessors":[{"bufferView":0,"componentType":5125,"count":193596,"type":"SCALAR","name":"accessorIndices"},{"bufferView":1,"componentType":5126,"count":193596,"max":[9.209508,3.21499968,-0.8749995],"min":[-9.209508,-3.21500015,-20.2249985],"type":"VEC3","name":"accessorPositions"},{"bufferView":1,"byteOffset":2323152,"componentType":5126,"count":193596,"type":"VEC3","name":"accessorNormals"},{"bufferView":2,"componentType":5126,"count":193596,"type":"VEC2","name":"accessorUVs"},{"bufferView":0,"byteOffset":774384,"componentType":5123,"count":3,"type":"SCALAR","name":"accessorIndices"},{"bufferView":1,"byteOffset":4646304,"componentType":5126,"count":3,"max":[0.235807836,-3.64205718,-1.59562457],"min":[0.100835457,-3.6650002,-1.79470551],"type":"VEC3","name":"accessorPositions"},{"bufferView":1,"byteOffset":4646340,"componentType":5126,"count":3,"type":"VEC3","name":"accessorNormals"},{"bufferView":2,"byteOffset":1548768,"componentType":5126,"count":3,"type":"VEC2","name":"accessorUVs"},{"bufferView":0,"byteOffset":774392,"componentType":5123,"count":40497,"type":"SCALAR","name":"accessorIndices"},{"bufferView":1,"byteOffset":4646376,"componentType":5126,"count":40497,"max":[8.08926,3.66499972,1.52587887E-07],"min":[-6.910244,-3.6650002,-1.99999952],"type":"VEC3","name":"accessorPositions"},{"bufferView":1,"byteOffset":5132340,"componentType":5126,"count":40497,"type":"VEC3","name":"accessorNormals"},{"bufferView":2,"byteOffset":1548792,"componentType":5126,"count":40497,"type":"VEC2","name":"accessorUVs"},{"bufferView":0,"byteOffset":855388,"componentType":5123,"count":186,"type":"SCALAR","name":"accessorIndices"},{"bufferView":1,"byteOffset":5618304,"componentType":5126,"count":186,"max":[6.539508,2.3099997,-7.504999],"min":[-8.360492,-2.31000018,-11.6249981],"type":"VEC3","name":"accessorPositions"},{"bufferView":1,"byteOffset":5620536,"componentType":5126,"count":186,"type":"VEC3","name":"accessorNormals"},{"bufferView":2,"byteOffset":1872768,"componentType":5126,"count":186,"type":"VEC2","name":"accessorUVs"},{"bufferView":0,"byteOffset":855760,"componentType":5125,"count":131226,"type":"SCALAR","name":"accessorIndices"},{"bufferView":1,"byteOffset":5622768,"componentType":5126,"count":131226,"max":[9.024509,3.7489996,-0.21499984],"min":[-6.345492,-3.749,-4.37041473],"type":"VEC3","name":"accessorPositions"},{"bufferView":1,"byteOffset":7197480,"componentType":5126,"count":131226,"type":"VEC3","name":"accessorNormals"},{"bufferView":2,"byteOffset":1874256,"componentType":5126,"count":131226,"type":"VEC2","name":"accessorUVs"},{"bufferView":0,"byteOffset":1380664,"componentType":5123,"count":162,"type":"SCALAR","name":"accessorIndices"},{"bufferView":1,"byteOffset":8772192,"componentType":5126,"count":162,"max":[4.559508,2.3099997,-11.5349989],"min":[-8.240492,-2.31000018,-11.6249981],"type":"VEC3","name":"accessorPositions"},{"bufferView":1,"byteOffset":8774136,"componentType":5126,"count":162,"type":"VEC3","name":"accessorNormals"},{"bufferView":2,"byteOffset":2924064,"componentType":5126,"count":162,"type":"VEC2","name":"accessorUVs"}],"bufferViews":[{"buffer":0,"byteLength":1380988,"name":"bufferViewScalar"},{"buffer":0,"byteOffset":1380988,"byteLength":8776080,"byteStride":12,"name":"bufferViewFloatVec3"},{"buffer":0,"byteOffset":10157068,"byteLength":2925360,"byteStride":8,"name":"bufferViewFloatVec2"}],"buffers":[{"uri":"p2rv.bin","byteLength":13082428}]}