{"asset":{"version":"2.0","generator":"babylon.js glTF exporter for 3dsmax 2021 v20200917.1"},"scene":0,"scenes":[{"nodes":[0,1]}],"nodes":[{"mesh":0,"rotation":[0.7071068,0.0,0.0,0.7071067],"scale":[0.099999994,0.099999994,0.099999994],"name":"P2rv"},{"name":"Default light"}],"meshes":[{"primitives":[{"attributes":{"POSITION":1,"NORMAL":2,"TEXCOORD_0":3},"indices":0}],"name":"P2rv"}],"accessors":[{"bufferView":0,"componentType":5125,"count":365670,"type":"SCALAR","name":"accessorIndices"},{"bufferView":1,"componentType":5126,"count":365670,"max":[9.209508,3.7489996,1.52587887E-07],"min":[-9.209508,-3.749,-20.2249985],"type":"VEC3","name":"accessorPositions"},{"bufferView":1,"byteOffset":4388040,"componentType":5126,"count":365670,"type":"VEC3","name":"accessorNormals"},{"bufferView":2,"componentType":5126,"count":365670,"type":"VEC2","name":"accessorUVs"}],"bufferViews":[{"buffer":0,"byteLength":1462680,"name":"bufferViewScalar"},{"buffer":0,"byteOffset":1462680,"byteLength":8776080,"byteStride":12,"name":"bufferViewFloatVec3"},{"buffer":0,"byteOffset":10238760,"byteLength":2925360,"byteStride":8,"name":"bufferViewFloatVec2"}],"buffers":[{"uri":"p2rv.bin","byteLength":13164120}]}