{"asset":{"version":"2.0","generator":"babylon.js glTF exporter for 3dsmax 2021 v20200917.1"},"scene":0,"scenes":[{"nodes":[0,1,2,3]}],"nodes":[{"mesh":0,"scale":[0.099999994,0.099999994,0.099999994],"name":"baza004"},{"mesh":1,"scale":[0.099999994,0.099999994,0.099999994],"name":"pokryshki004"},{"mesh":2,"scale":[0.099999994,0.099999994,0.099999994],"name":"stoiki004"},{"name":"Default light"}],"meshes":[{"primitives":[{"attributes":{"POSITION":1,"NORMAL":2,"TEXCOORD_0":3},"indices":0}],"name":"baza004"},{"primitives":[{"attributes":{"POSITION":5,"NORMAL":6,"TEXCOORD_0":7},"indices":4}],"name":"pokryshki004"},{"primitives":[{"attributes":{"POSITION":9,"NORMAL":10,"TEXCOORD_0":11},"indices":8}],"name":"stoiki004"}],"accessors":[{"bufferView":0,"componentType":5123,"count":19686,"type":"SCALAR","name":"accessorIndices"},{"bufferView":1,"componentType":5126,"count":19686,"max":[7.85734463,3.374268,4.300578],"min":[-6.26816273,1.53020918,-4.300578],"type":"VEC3","name":"accessorPositions"},{"bufferView":1,"byteOffset":236232,"componentType":5126,"count":19686,"type":"VEC3","name":"accessorNormals"},{"bufferView":2,"componentType":5126,"count":19686,"type":"VEC2","name":"accessorUVs"},{"bufferView":0,"byteOffset":39372,"componentType":5123,"count":28824,"type":"SCALAR","name":"accessorIndices"},{"bufferView":1,"byteOffset":472464,"componentType":5126,"count":28824,"max":[6.709944,2.00940752,3.35],"min":[-5.869294,3.05175774E-07,-3.35],"type":"VEC3","name":"accessorPositions"},{"bufferView":1,"byteOffset":818352,"componentType":5126,"count":28824,"type":"VEC3","name":"accessorNormals"},{"bufferView":2,"byteOffset":157488,"componentType":5126,"count":28824,"type":"VEC2","name":"accessorUVs"},{"bufferView":0,"byteOffset":97020,"componentType":5125,"count":325704,"type":"SCALAR","name":"accessorIndices"},{"bufferView":1,"byteOffset":1164240,"componentType":5126,"count":325704,"max":[12.1396933,8.783148,3.62999988],"min":[-6.44680548,0.0477603152,-3.62999988],"type":"VEC3","name":"accessorPositions"},{"bufferView":1,"byteOffset":5072688,"componentType":5126,"count":325704,"type":"VEC3","name":"accessorNormals"},{"bufferView":2,"byteOffset":388080,"componentType":5126,"count":325704,"type":"VEC2","name":"accessorUVs"}],"bufferViews":[{"buffer":0,"byteLength":1399836,"name":"bufferViewScalar"},{"buffer":0,"byteOffset":1399836,"byteLength":8981136,"byteStride":12,"name":"bufferViewFloatVec3"},{"buffer":0,"byteOffset":10380972,"byteLength":2993712,"byteStride":8,"name":"bufferViewFloatVec2"}],"buffers":[{"uri":"p1rbg.bin","byteLength":13374684}]}