{"asset":{"version":"2.0","generator":"babylon.js glTF exporter for 3dsmax 2021 v20200917.1"},"scene":0,"scenes":[{"nodes":[0,1]}],"nodes":[{"mesh":0,"scale":[0.099999994,0.099999994,0.099999994],"name":"P1r-bg"},{"name":"Default light"}],"meshes":[{"primitives":[{"attributes":{"POSITION":1,"NORMAL":2,"TEXCOORD_0":3},"indices":0}],"name":"P1r-bg"}],"accessors":[{"bufferView":0,"componentType":5125,"count":374214,"type":"SCALAR","name":"accessorIndices"},{"bufferView":1,"componentType":5126,"count":374214,"max":[12.1396933,8.783148,4.300578],"min":[-6.44680548,3.05175774E-07,-4.300578],"type":"VEC3","name":"accessorPositions"},{"bufferView":1,"byteOffset":4490568,"componentType":5126,"count":374214,"type":"VEC3","name":"accessorNormals"},{"bufferView":2,"componentType":5126,"count":374214,"type":"VEC2","name":"accessorUVs"}],"bufferViews":[{"buffer":0,"byteLength":1496856,"name":"bufferViewScalar"},{"buffer":0,"byteOffset":1496856,"byteLength":8981136,"byteStride":12,"name":"bufferViewFloatVec3"},{"buffer":0,"byteOffset":10477992,"byteLength":2993712,"byteStride":8,"name":"bufferViewFloatVec2"}],"buffers":[{"uri":"p1rbg.bin","byteLength":13471704}]}