{"asset":{"version":"2.0","generator":"babylon.js glTF exporter for 3dsmax 2021 v20210519.2"},"scene":0,"scenes":[{"nodes":[0,1,2,3,4,5,6]}],"nodes":[{"mesh":0,"rotation":[0.7071068,0.0,0.0,0.7071067],"scale":[0.099999994,0.099999994,0.099999994],"name":"P2rn_065x085_2021"},{"mesh":1,"rotation":[0.7071068,0.0,0.0,0.7071067],"scale":[0.099999994,0.099999994,0.099999994],"name":"silver"},{"mesh":2,"rotation":[0.7071068,0.0,0.0,0.7071067],"scale":[0.099999994,0.099999994,0.099999994],"name":"black"},{"mesh":3,"rotation":[0.7071068,0.0,0.0,0.7071067],"scale":[0.099999994,0.099999994,0.099999994],"name":"gold1"},{"mesh":4,"rotation":[0.7071068,0.0,0.0,0.7071067],"scale":[0.099999994,0.099999994,0.099999994],"name":"logo"},{"mesh":5,"rotation":[0.7071068,0.0,0.0,0.7071067],"scale":[0.099999994,0.099999994,0.099999994],"name":"black1"},{"mesh":6,"rotation":[0.7071068,0.0,0.0,0.7071067],"scale":[0.099999994,0.099999994,0.099999994],"name":"gold2"}],"meshes":[{"primitives":[{"attributes":{"POSITION":1,"NORMAL":2,"TEXCOORD_0":3},"indices":0}],"name":"P2rn_065x085_2021"},{"primitives":[{"attributes":{"POSITION":5,"NORMAL":6,"TEXCOORD_0":7},"indices":4}],"name":"silver"},{"primitives":[{"attributes":{"POSITION":9,"NORMAL":10,"TEXCOORD_0":11},"indices":8}],"name":"black"},{"primitives":[{"attributes":{"POSITION":13,"NORMAL":14,"TEXCOORD_0":15},"indices":12}],"name":"gold1"},{"primitives":[{"attributes":{"POSITION":17,"NORMAL":18,"TEXCOORD_0":19},"indices":16}],"name":"logo"},{"primitives":[{"attributes":{"POSITION":21,"NORMAL":22,"TEXCOORD_0":23},"indices":20}],"name":"black1"},{"primitives":[{"attributes":{"POSITION":25,"NORMAL":26,"TEXCOORD_0":27},"indices":24}],"name":"gold2"}],"accessors":[{"bufferView":0,"componentType":5123,"count":3,"type":"SCALAR","name":"accessorIndices"},{"bufferView":1,"componentType":5126,"count":3,"max":[3.72914934,2.07249284,-1.621569],"min":[3.70844436,2.038993,-1.71099412],"type":"VEC3","name":"accessorPositions"},{"bufferView":1,"byteOffset":36,"componentType":5126,"count":3,"type":"VEC3","name":"accessorNormals"},{"bufferView":2,"componentType":5126,"count":3,"type":"VEC2","name":"accessorUVs"},{"bufferView":0,"byteOffset":8,"componentType":5125,"count":317349,"type":"SCALAR","name":"accessorIndices"},{"bufferView":1,"byteOffset":72,"componentType":5126,"count":317349,"max":[4.25013828,3.1,-0.7174841],"min":[-4.21204853,-3.1,-8.156984],"type":"VEC3","name":"accessorPositions"},{"bufferView":1,"byteOffset":3808260,"componentType":5126,"count":317349,"type":"VEC3","name":"accessorNormals"},{"bufferView":2,"byteOffset":24,"componentType":5126,"count":317349,"type":"VEC2","name":"accessorUVs"},{"bufferView":0,"byteOffset":1269404,"componentType":5125,"count":368964,"type":"SCALAR","name":"accessorIndices"},{"bufferView":1,"byteOffset":7616448,"componentType":5126,"count":368964,"max":[4.968049,2.63999987,0.0],"min":[-4.4720335,-2.796,-2.615447],"type":"VEC3","name":"accessorPositions"},{"bufferView":1,"byteOffset":12044016,"componentType":5126,"count":368964,"type":"VEC3","name":"accessorNormals"},{"bufferView":2,"byteOffset":2538816,"componentType":5126,"count":368964,"type":"VEC2","name":"accessorUVs"},{"bufferView":0,"byteOffset":2745260,"componentType":5123,"count":702,"type":"SCALAR","name":"accessorIndices"},{"bufferView":1,"byteOffset":16471584,"componentType":5126,"count":702,"max":[4.00295,3.1,-2.949984],"min":[-4.19704962,-3.1,-3.299984],"type":"VEC3","name":"accessorPositions"},{"bufferView":1,"byteOffset":16480008,"componentType":5126,"count":702,"type":"VEC3","name":"accessorNormals"},{"bufferView":2,"byteOffset":5490528,"componentType":5126,"count":702,"type":"VEC2","name":"accessorUVs"},{"bufferView":0,"byteOffset":2746664,"componentType":5123,"count":47052,"type":"SCALAR","name":"accessorIndices"},{"bufferView":1,"byteOffset":16488432,"componentType":5126,"count":47052,"max":[4.01795149,0.450380445,-3.00458574],"min":[-4.21205044,-0.4503831,-3.24541426],"type":"VEC3","name":"accessorPositions"},{"bufferView":1,"byteOffset":17053056,"componentType":5126,"count":47052,"type":"VEC3","name":"accessorNormals"},{"bufferView":2,"byteOffset":5496144,"componentType":5126,"count":47052,"type":"VEC2","name":"accessorUVs"},{"bufferView":0,"byteOffset":2840768,"componentType":5123,"count":3432,"type":"SCALAR","name":"accessorIndices"},{"bufferView":1,"byteOffset":17617680,"componentType":5126,"count":3432,"max":[-3.02296138,2.45039177,-1.15308917],"min":[-3.28912258,-2.450392,-1.40829909],"type":"VEC3","name":"accessorPositions"},{"bufferView":1,"byteOffset":17658864,"componentType":5126,"count":3432,"type":"VEC3","name":"accessorNormals"},{"bufferView":2,"byteOffset":5872560,"componentType":5126,"count":3432,"type":"VEC2","name":"accessorUVs"},{"bufferView":0,"byteOffset":2847632,"componentType":5125,"count":75597,"type":"SCALAR","name":"accessorIndices"},{"bufferView":1,"byteOffset":17700048,"componentType":5126,"count":75597,"max":[4.77395058,3.101,-2.749984],"min":[-4.96804953,-3.101,-8.449984],"type":"VEC3","name":"accessorPositions"},{"bufferView":1,"byteOffset":18607212,"componentType":5126,"count":75597,"type":"VEC3","name":"accessorNormals"},{"bufferView":2,"byteOffset":5900016,"componentType":5126,"count":75597,"type":"VEC2","name":"accessorUVs"}],"bufferViews":[{"buffer":0,"byteLength":3150020,"name":"bufferViewScalar"},{"buffer":0,"byteOffset":3150020,"byteLength":19514376,"byteStride":12,"name":"bufferViewFloatVec3"},{"buffer":0,"byteOffset":22664396,"byteLength":6504792,"byteStride":8,"name":"bufferViewFloatVec2"}],"buffers":[{"uri":"p2rn1.bin","byteLength":29169188}]}