{"asset":{"version":"2.0","generator":"babylon.js glTF exporter for 3dsmax 2021 v20210519.2"},"scene":0,"scenes":[{"nodes":[0,1,2]}],"nodes":[{"mesh":0,"rotation":[0.49999997,-0.5000001,0.50000006,0.49999994],"scale":[0.099999994,0.099999994,0.099999994],"name":"green"},{"mesh":1,"rotation":[0.49999997,-0.5000001,0.50000006,0.49999994],"scale":[0.099999994,0.099999994,0.099999994],"name":"black"},{"mesh":2,"rotation":[0.49999997,-0.5000001,0.50000006,0.49999994],"scale":[0.099999994,0.099999994,0.099999994],"name":"silver"}],"meshes":[{"primitives":[{"attributes":{"POSITION":1,"NORMAL":2,"TEXCOORD_0":3},"indices":0}],"name":"green"},{"primitives":[{"attributes":{"POSITION":5,"NORMAL":6,"TEXCOORD_0":7},"indices":4}],"name":"black"},{"primitives":[{"attributes":{"POSITION":9,"NORMAL":10,"TEXCOORD_0":11},"indices":8}],"name":"silver"}],"accessors":[{"bufferView":0,"componentType":5123,"count":63105,"type":"SCALAR","name":"accessorIndices"},{"bufferView":1,"componentType":5126,"count":63105,"max":[11.48135,3.95500064,-0.7400003],"min":[-13.5216789,-3.95499921,-6.02999973],"type":"VEC3","name":"accessorPositions"},{"bufferView":1,"byteOffset":757260,"componentType":5126,"count":63105,"type":"VEC3","name":"accessorNormals"},{"bufferView":2,"componentType":5126,"count":63105,"type":"VEC2","name":"accessorUVs"},{"bufferView":0,"byteOffset":126212,"componentType":5125,"count":93540,"type":"SCALAR","name":"accessorIndices"},{"bufferView":1,"byteOffset":1514520,"componentType":5126,"count":93540,"max":[7.421102,3.70000052,-3.05175774E-07],"min":[-9.978402,-3.69999933,-2.00000024],"type":"VEC3","name":"accessorPositions"},{"bufferView":1,"byteOffset":2637000,"componentType":5126,"count":93540,"type":"VEC3","name":"accessorNormals"},{"bufferView":2,"byteOffset":504840,"componentType":5126,"count":93540,"type":"VEC2","name":"accessorUVs"},{"bufferView":0,"byteOffset":500372,"componentType":5125,"count":710322,"type":"SCALAR","name":"accessorIndices"},{"bufferView":1,"byteOffset":3759480,"componentType":5126,"count":710322,"max":[14.2913494,3.92500043,-0.100553282],"min":[-14.2913494,-3.92499924,-8.109119],"type":"VEC3","name":"accessorPositions"},{"bufferView":1,"byteOffset":12283344,"componentType":5126,"count":710322,"type":"VEC3","name":"accessorNormals"},{"bufferView":2,"byteOffset":1253160,"componentType":5126,"count":710322,"type":"VEC2","name":"accessorUVs"}],"bufferViews":[{"buffer":0,"byteLength":3341660,"name":"bufferViewScalar"},{"buffer":0,"byteOffset":3341660,"byteLength":20807208,"byteStride":12,"name":"bufferViewFloatVec3"},{"buffer":0,"byteOffset":24148868,"byteLength":6935736,"byteStride":8,"name":"bufferViewFloatVec2"}],"buffers":[{"uri":"p2rpm2.bin","byteLength":31084604}]}