{"asset":{"version":"2.0","generator":"babylon.js glTF exporter for 3dsmax 2021 v20210519.2"},"scene":0,"scenes":[{"nodes":[0,1]}],"nodes":[{"mesh":0,"scale":[0.099999994,0.099999994,0.099999994],"name":"PET14_2021"},{"mesh":1,"scale":[0.099999994,0.099999994,0.099999994],"name":"wheels"}],"meshes":[{"primitives":[{"attributes":{"POSITION":1,"NORMAL":2,"TEXCOORD_0":3},"indices":0}],"name":"PET14_2021"},{"primitives":[{"attributes":{"POSITION":5,"NORMAL":6,"TEXCOORD_0":7},"indices":4}],"name":"wheels"}],"accessors":[{"bufferView":0,"componentType":5125,"count":261870,"type":"SCALAR","name":"accessorIndices"},{"bufferView":1,"componentType":5126,"count":261870,"max":[3.417464,16.70497,2.375226],"min":[-3.407484,0.354881048,-2.375226],"type":"VEC3","name":"accessorPositions"},{"bufferView":1,"byteOffset":3142440,"componentType":5126,"count":261870,"type":"VEC3","name":"accessorNormals"},{"bufferView":2,"componentType":5126,"count":261870,"type":"VEC2","name":"accessorUVs"},{"bufferView":0,"byteOffset":1047480,"componentType":5123,"count":40608,"type":"SCALAR","name":"accessorIndices"},{"bufferView":1,"byteOffset":6284880,"componentType":5126,"count":40608,"max":[2.93646884,1.00423455,2.004029],"min":[-3.11810517,6.10351549E-07,-2.002917],"type":"VEC3","name":"accessorPositions"},{"bufferView":1,"byteOffset":6772176,"componentType":5126,"count":40608,"type":"VEC3","name":"accessorNormals"},{"bufferView":2,"byteOffset":2094960,"componentType":5126,"count":40608,"type":"VEC2","name":"accessorUVs"}],"bufferViews":[{"buffer":0,"byteLength":1128696,"name":"bufferViewScalar"},{"buffer":0,"byteOffset":1128696,"byteLength":7259472,"byteStride":12,"name":"bufferViewFloatVec3"},{"buffer":0,"byteOffset":8388168,"byteLength":2419824,"byteStride":8,"name":"bufferViewFloatVec2"}],"buffers":[{"uri":"pet14.bin","byteLength":10807992}]}