{"asset":{"version":"2.0","generator":"babylon.js glTF exporter for 3dsmax 2021 v20200917.1"},"scene":0,"scenes":[{"nodes":[0,1,2,3,4,5,6]}],"nodes":[{"mesh":0,"rotation":[0.7071068,0.0,0.0,0.7071067],"scale":[0.099999994,0.099999994,0.099999994],"name":"b_pet"},{"mesh":1,"rotation":[0.7071068,0.0,0.0,0.7071067],"scale":[0.099999994,0.099999994,0.099999994],"name":"p_pet"},{"mesh":2,"rotation":[0.7071068,0.0,0.0,0.7071067],"scale":[0.099999994,0.099999994,0.099999994],"name":"k_pet"},{"mesh":3,"rotation":[0.7071068,0.0,0.0,0.7071067],"scale":[0.099999994,0.099999994,0.099999994],"name":"s_pet"},{"mesh":4,"rotation":[0.7071068,0.0,0.0,0.7071067],"scale":[0.099999994,0.099999994,0.099999994],"name":"b2_pet"},{"mesh":5,"rotation":[0.7071068,0.0,0.0,0.7071067],"scale":[0.099999994,0.099999994,0.099999994],"name":"b3_pet"},{"name":"Default light"}],"meshes":[{"primitives":[{"attributes":{"POSITION":1,"NORMAL":2,"TEXCOORD_0":3},"indices":0}],"name":"b_pet"},{"primitives":[{"attributes":{"POSITION":5,"NORMAL":6,"TEXCOORD_0":7},"indices":4}],"name":"p_pet"},{"primitives":[{"attributes":{"POSITION":9,"NORMAL":10,"TEXCOORD_0":11},"indices":8}],"name":"k_pet"},{"primitives":[{"attributes":{"POSITION":13,"NORMAL":14,"TEXCOORD_0":15},"indices":12}],"name":"s_pet"},{"primitives":[{"attributes":{"POSITION":17,"NORMAL":18,"TEXCOORD_0":19},"indices":16}],"name":"b2_pet"},{"primitives":[{"attributes":{"POSITION":21,"NORMAL":22,"TEXCOORD_0":23},"indices":20}],"name":"b3_pet"}],"accessors":[{"bufferView":0,"componentType":5125,"count":116004,"type":"SCALAR","name":"accessorIndices"},{"bufferView":1,"componentType":5126,"count":116004,"max":[6.687826,3.02999973,-1.33376527],"min":[-6.87217331,-3.03000021,-19.5337639],"type":"VEC3","name":"accessorPositions"},{"bufferView":1,"byteOffset":1392048,"componentType":5126,"count":116004,"type":"VEC3","name":"accessorNormals"},{"bufferView":2,"componentType":5126,"count":116004,"type":"VEC2","name":"accessorUVs"},{"bufferView":0,"byteOffset":464016,"componentType":5123,"count":31776,"type":"SCALAR","name":"accessorIndices"},{"bufferView":1,"byteOffset":2784096,"componentType":5126,"count":31776,"max":[6.59781551,2.561708,-3.41796876E-05],"min":[-5.881583,-2.56191039,-1.00070071],"type":"VEC3","name":"accessorPositions"},{"bufferView":1,"byteOffset":3165408,"componentType":5126,"count":31776,"type":"VEC3","name":"accessorNormals"},{"bufferView":2,"byteOffset":928032,"componentType":5126,"count":31776,"type":"VEC2","name":"accessorUVs"},{"bufferView":0,"byteOffset":527568,"componentType":5123,"count":31296,"type":"SCALAR","name":"accessorIndices"},{"bufferView":1,"byteOffset":3546720,"componentType":5126,"count":31296,"max":[6.46760845,2.60499954,-0.12949127],"min":[-5.75176573,-2.60500026,-0.8698375],"type":"VEC3","name":"accessorPositions"},{"bufferView":1,"byteOffset":3922272,"componentType":5126,"count":31296,"type":"VEC3","name":"accessorNormals"},{"bufferView":2,"byteOffset":1182240,"componentType":5126,"count":31296,"type":"VEC2","name":"accessorUVs"},{"bufferView":0,"byteOffset":590160,"componentType":5125,"count":357600,"type":"SCALAR","name":"accessorIndices"},{"bufferView":1,"byteOffset":4297824,"componentType":5126,"count":357600,"max":[6.915173,2.9349997,-0.332712233],"min":[-6.915173,-2.93500018,-19.3537636],"type":"VEC3","name":"accessorPositions"},{"bufferView":1,"byteOffset":8589024,"componentType":5126,"count":357600,"type":"VEC3","name":"accessorNormals"},{"bufferView":2,"byteOffset":1432608,"componentType":5126,"count":357600,"type":"VEC2","name":"accessorUVs"},{"bufferView":0,"byteOffset":2020560,"componentType":5123,"count":1140,"type":"SCALAR","name":"accessorIndices"},{"bufferView":1,"byteOffset":12880224,"componentType":5126,"count":1140,"max":[6.5778265,2.97499967,-1.93376517],"min":[-6.762173,-2.97500014,-10.453764],"type":"VEC3","name":"accessorPositions"},{"bufferView":1,"byteOffset":12893904,"componentType":5126,"count":1140,"type":"VEC3","name":"accessorNormals"},{"bufferView":2,"byteOffset":4293408,"componentType":5126,"count":1140,"type":"VEC2","name":"accessorUVs"},{"bufferView":0,"byteOffset":2022840,"componentType":5123,"count":180,"type":"SCALAR","name":"accessorIndices"},{"bufferView":1,"byteOffset":12907584,"componentType":5126,"count":180,"max":[6.5778265,2.97499967,-1.93376517],"min":[-6.762173,-2.97500014,-10.453764],"type":"VEC3","name":"accessorPositions"},{"bufferView":1,"byteOffset":12909744,"componentType":5126,"count":180,"type":"VEC3","name":"accessorNormals"},{"bufferView":2,"byteOffset":4302528,"componentType":5126,"count":180,"type":"VEC2","name":"accessorUVs"}],"bufferViews":[{"buffer":0,"byteLength":2023200,"name":"bufferViewScalar"},{"buffer":0,"byteOffset":2023200,"byteLength":12911904,"byteStride":12,"name":"bufferViewFloatVec3"},{"buffer":0,"byteOffset":14935104,"byteLength":4303968,"byteStride":8,"name":"bufferViewFloatVec2"}],"buffers":[{"uri":"pet.bin","byteLength":19239072}]}