{"asset":{"version":"2.0","generator":"babylon.js glTF exporter for 3dsmax 2021 v20200917.1"},"scene":0,"scenes":[{"nodes":[0,1]}],"nodes":[{"mesh":0,"rotation":[0.7071068,0.0,0.0,0.7071067],"scale":[0.099999994,0.099999994,0.099999994],"name":"PET"},{"name":"Default light"}],"meshes":[{"primitives":[{"attributes":{"POSITION":1,"NORMAL":2,"TEXCOORD_0":3},"indices":0}],"name":"PET"}],"accessors":[{"bufferView":0,"componentType":5125,"count":537996,"type":"SCALAR","name":"accessorIndices"},{"bufferView":1,"componentType":5126,"count":537996,"max":[6.915173,3.02999973,-3.05175774E-07],"min":[-6.915173,-3.03000021,-19.5337639],"type":"VEC3","name":"accessorPositions"},{"bufferView":1,"byteOffset":6455952,"componentType":5126,"count":537996,"type":"VEC3","name":"accessorNormals"},{"bufferView":2,"componentType":5126,"count":537996,"type":"VEC2","name":"accessorUVs"}],"bufferViews":[{"buffer":0,"byteLength":2151984,"name":"bufferViewScalar"},{"buffer":0,"byteOffset":2151984,"byteLength":12911904,"byteStride":12,"name":"bufferViewFloatVec3"},{"buffer":0,"byteOffset":15063888,"byteLength":4303968,"byteStride":8,"name":"bufferViewFloatVec2"}],"buffers":[{"uri":"pet.bin","byteLength":19367856}]}