{"asset":{"version":"2.0","generator":"babylon.js glTF exporter for 3dsmax 2021 v20200917.1"},"scene":0,"scenes":[{"nodes":[0,1,2,3]}],"nodes":[{"mesh":0,"rotation":[0.5,-0.5,0.50000006,0.49999994],"scale":[0.099999994,0.099999994,0.099999994],"name":"pokryshki005"},{"mesh":1,"rotation":[0.5,-0.5,0.50000006,0.49999994],"scale":[0.099999994,0.099999994,0.099999994],"name":"kolpaki004"},{"mesh":2,"rotation":[0.5,-0.5,0.50000006,0.49999994],"scale":[0.099999994,0.099999994,0.099999994],"name":"stoiki005"},{"name":"Default light"}],"meshes":[{"primitives":[{"attributes":{"POSITION":1,"NORMAL":2,"TEXCOORD_0":3},"indices":0}],"name":"pokryshki005"},{"primitives":[{"attributes":{"POSITION":5,"NORMAL":6,"TEXCOORD_0":7},"indices":4}],"name":"kolpaki004"},{"primitives":[{"attributes":{"POSITION":9,"NORMAL":10,"TEXCOORD_0":11},"indices":8}],"name":"stoiki005"}],"accessors":[{"bufferView":0,"componentType":5123,"count":45870,"type":"SCALAR","name":"accessorIndices"},{"bufferView":1,"componentType":5126,"count":45870,"max":[3.900648,8.408126,-3.05175774E-07],"min":[-3.90064788,-7.89137745,-1.99956107],"type":"VEC3","name":"accessorPositions"},{"bufferView":1,"byteOffset":550440,"componentType":5126,"count":45870,"type":"VEC3","name":"accessorNormals"},{"bufferView":2,"componentType":5126,"count":45870,"type":"VEC2","name":"accessorUVs"},{"bufferView":0,"byteOffset":91740,"componentType":5123,"count":17016,"type":"SCALAR","name":"accessorIndices"},{"bufferView":1,"byteOffset":1100880,"componentType":5126,"count":17016,"max":[3.829569,9.930374,-0.102849275],"min":[-3.829569,-10.2183752,-1.35159731],"type":"VEC3","name":"accessorPositions"},{"bufferView":1,"byteOffset":1305072,"componentType":5126,"count":17016,"type":"VEC3","name":"accessorNormals"},{"bufferView":2,"byteOffset":366960,"componentType":5126,"count":17016,"type":"VEC2","name":"accessorUVs"},{"bufferView":0,"byteOffset":125772,"componentType":5125,"count":684414,"type":"SCALAR","name":"accessorIndices"},{"bufferView":1,"byteOffset":1509264,"componentType":5126,"count":684414,"max":[4.0539813,10.2183752,-0.202697292],"min":[-4.053981,-10.1183014,-9.14703],"type":"VEC3","name":"accessorPositions"},{"bufferView":1,"byteOffset":9722232,"componentType":5126,"count":684414,"type":"VEC3","name":"accessorNormals"},{"bufferView":2,"byteOffset":503088,"componentType":5126,"count":684414,"type":"VEC2","name":"accessorUVs"}],"bufferViews":[{"buffer":0,"byteLength":2863428,"name":"bufferViewScalar"},{"buffer":0,"byteOffset":2863428,"byteLength":17935200,"byteStride":12,"name":"bufferViewFloatVec3"},{"buffer":0,"byteOffset":20798628,"byteLength":5978400,"byteStride":8,"name":"bufferViewFloatVec2"}],"buffers":[{"uri":"p1pm3shnk.bin","byteLength":26777028}]}