{"asset":{"version":"2.0","generator":"babylon.js glTF exporter for 3dsmax 2021 v20200917.1"},"scene":0,"scenes":[{"nodes":[0,1]}],"nodes":[{"mesh":0,"rotation":[0.50000006,-0.49999997,0.5,0.5],"scale":[0.099999994,0.099999994,0.099999994],"name":" P1pm3-shnk"},{"name":"Default light"}],"meshes":[{"primitives":[{"attributes":{"POSITION":1,"NORMAL":2,"TEXCOORD_0":3},"indices":0}],"name":" P1pm3-shnk"}],"accessors":[{"bufferView":0,"componentType":5125,"count":747300,"type":"SCALAR","name":"accessorIndices"},{"bufferView":1,"componentType":5126,"count":747300,"max":[4.0539813,10.2183752,-3.05175774E-07],"min":[-4.053981,-10.2183752,-9.14703],"type":"VEC3","name":"accessorPositions"},{"bufferView":1,"byteOffset":8967600,"componentType":5126,"count":747300,"type":"VEC3","name":"accessorNormals"},{"bufferView":2,"componentType":5126,"count":747300,"type":"VEC2","name":"accessorUVs"}],"bufferViews":[{"buffer":0,"byteLength":2989200,"name":"bufferViewScalar"},{"buffer":0,"byteOffset":2989200,"byteLength":17935200,"byteStride":12,"name":"bufferViewFloatVec3"},{"buffer":0,"byteOffset":20924400,"byteLength":5978400,"byteStride":8,"name":"bufferViewFloatVec2"}],"buffers":[{"uri":"p1pm3shnk.bin","byteLength":26902800}]}