{"asset":{"version":"2.0","generator":"babylon.js glTF exporter for 3dsmax 2021 v20200917.1"},"scene":0,"scenes":[{"nodes":[0,1]}],"nodes":[{"mesh":0,"rotation":[-0.5,-0.5,0.5,-0.5],"scale":[0.099999994,0.099999994,0.099999994],"name":" P1kpm"},{"name":"Default light"}],"meshes":[{"primitives":[{"attributes":{"POSITION":1,"NORMAL":2,"TEXCOORD_0":3},"indices":0}],"name":" P1kpm"}],"accessors":[{"bufferView":0,"componentType":5125,"count":347394,"type":"SCALAR","name":"accessorIndices"},{"bufferView":1,"componentType":5126,"count":347394,"max":[3.916468,14.6845284,-3.05175774E-07],"min":[-3.916468,-14.6845312,-9.90064049],"type":"VEC3","name":"accessorPositions"},{"bufferView":1,"byteOffset":4168728,"componentType":5126,"count":347394,"type":"VEC3","name":"accessorNormals"},{"bufferView":2,"componentType":5126,"count":347394,"type":"VEC2","name":"accessorUVs"}],"bufferViews":[{"buffer":0,"byteLength":1389576,"name":"bufferViewScalar"},{"buffer":0,"byteOffset":1389576,"byteLength":8337456,"byteStride":12,"name":"bufferViewFloatVec3"},{"buffer":0,"byteOffset":9727032,"byteLength":2779152,"byteStride":8,"name":"bufferViewFloatVec2"}],"buffers":[{"uri":"p1kpm.bin","byteLength":12506184}]}