{"asset":{"version":"2.0","generator":"babylon.js glTF exporter for 3dsmax 2021 v20200917.1"},"scene":0,"scenes":[{"nodes":[0,1,2,3,4]}],"nodes":[{"mesh":0,"rotation":[-0.5,-0.5,0.5,-0.5],"scale":[0.099999994,0.099999994,0.099999994],"name":"baza003"},{"mesh":1,"rotation":[-0.5,-0.5,0.5,-0.5],"scale":[0.099999994,0.099999994,0.099999994],"name":"pokryshki003"},{"mesh":2,"rotation":[-0.5,-0.5,0.5,-0.5],"scale":[0.099999994,0.099999994,0.099999994],"name":"kolpaki003"},{"mesh":3,"rotation":[-0.5,-0.5,0.5,-0.5],"scale":[0.099999994,0.099999994,0.099999994],"name":"stoiki003"},{"name":"Default light"}],"meshes":[{"primitives":[{"attributes":{"POSITION":1,"NORMAL":2,"TEXCOORD_0":3},"indices":0}],"name":"baza003"},{"primitives":[{"attributes":{"POSITION":5,"NORMAL":6,"TEXCOORD_0":7},"indices":4}],"name":"pokryshki003"},{"primitives":[{"attributes":{"POSITION":9,"NORMAL":10,"TEXCOORD_0":11},"indices":8}],"name":"kolpaki003"},{"primitives":[{"attributes":{"POSITION":13,"NORMAL":14,"TEXCOORD_0":15},"indices":12}],"name":"stoiki003"}],"accessors":[{"bufferView":0,"componentType":5123,"count":44277,"type":"SCALAR","name":"accessorIndices"},{"bufferView":1,"componentType":5126,"count":44277,"max":[3.840562,14.4104681,-0.746774256],"min":[-3.84056163,-11.6445313,-9.90064049],"type":"VEC3","name":"accessorPositions"},{"bufferView":1,"byteOffset":531324,"componentType":5126,"count":44277,"type":"VEC3","name":"accessorNormals"},{"bufferView":2,"componentType":5126,"count":44277,"type":"VEC2","name":"accessorUVs"},{"bufferView":0,"byteOffset":88556,"componentType":5123,"count":32082,"type":"SCALAR","name":"accessorIndices"},{"bufferView":1,"byteOffset":1062648,"componentType":5126,"count":32082,"max":[3.697532,11.3385706,-3.05175774E-07],"min":[-3.732468,-8.41093349,-1.99964011],"type":"VEC3","name":"accessorPositions"},{"bufferView":1,"byteOffset":1447632,"componentType":5126,"count":32082,"type":"VEC3","name":"accessorNormals"},{"bufferView":2,"byteOffset":354216,"componentType":5126,"count":32082,"type":"VEC2","name":"accessorUVs"},{"bufferView":0,"byteOffset":152720,"componentType":5123,"count":19944,"type":"SCALAR","name":"accessorIndices"},{"bufferView":1,"byteOffset":1832616,"componentType":5126,"count":19944,"max":[3.444968,12.8904686,-0.0396401957],"min":[-3.444968,-10.8595314,-1.28964019],"type":"VEC3","name":"accessorPositions"},{"bufferView":1,"byteOffset":2071944,"componentType":5126,"count":19944,"type":"VEC3","name":"accessorNormals"},{"bufferView":2,"byteOffset":610872,"componentType":5126,"count":19944,"type":"VEC2","name":"accessorUVs"},{"bufferView":0,"byteOffset":192608,"componentType":5125,"count":251091,"type":"SCALAR","name":"accessorIndices"},{"bufferView":1,"byteOffset":2311272,"componentType":5126,"count":251091,"max":[3.916468,14.6845284,-0.1396402],"min":[-3.916468,-14.6845312,-9.90064049],"type":"VEC3","name":"accessorPositions"},{"bufferView":1,"byteOffset":5324364,"componentType":5126,"count":251091,"type":"VEC3","name":"accessorNormals"},{"bufferView":2,"byteOffset":770424,"componentType":5126,"count":251091,"type":"VEC2","name":"accessorUVs"}],"bufferViews":[{"buffer":0,"byteLength":1196972,"name":"bufferViewScalar"},{"buffer":0,"byteOffset":1196972,"byteLength":8337456,"byteStride":12,"name":"bufferViewFloatVec3"},{"buffer":0,"byteOffset":9534428,"byteLength":2779152,"byteStride":8,"name":"bufferViewFloatVec2"}],"buffers":[{"uri":"p1kpm.bin","byteLength":12313580}]}