{"asset":{"version":"2.0","generator":"babylon.js glTF exporter for 3dsmax 2021 v20200917.1"},"scene":0,"scenes":[{"nodes":[0,1]}],"nodes":[{"mesh":0,"rotation":[0.7071068,0.0,0.0,0.7071067],"scale":[0.099999994,0.099999994,0.099999994],"name":"P2R"},{"name":"Default light"}],"meshes":[{"primitives":[{"attributes":{"POSITION":1,"NORMAL":2,"TEXCOORD_0":3},"indices":0}],"name":"P2R"}],"accessors":[{"bufferView":0,"componentType":5125,"count":262152,"type":"SCALAR","name":"accessorIndices"},{"bufferView":1,"componentType":5126,"count":262152,"max":[8.862185,3.38899946,0.0],"min":[-8.862185,-3.38900018,-8.275],"type":"VEC3","name":"accessorPositions"},{"bufferView":1,"byteOffset":3145824,"componentType":5126,"count":262152,"type":"VEC3","name":"accessorNormals"},{"bufferView":2,"componentType":5126,"count":262152,"type":"VEC2","name":"accessorUVs"}],"bufferViews":[{"buffer":0,"byteLength":1048608,"name":"bufferViewScalar"},{"buffer":0,"byteOffset":1048608,"byteLength":6291648,"byteStride":12,"name":"bufferViewFloatVec3"},{"buffer":0,"byteOffset":7340256,"byteLength":2097216,"byteStride":8,"name":"bufferViewFloatVec2"}],"buffers":[{"uri":"p2r.bin","byteLength":9437472}]}