{"asset":{"version":"2.0","generator":"babylon.js glTF exporter for 3dsmax 2021 v20200917.1"},"scene":0,"scenes":[{"nodes":[0,1,2,3]}],"nodes":[{"mesh":0,"rotation":[0.7071068,0.0,0.0,0.7071067],"scale":[0.099999994,0.099999994,0.099999994],"name":"baza006"},{"mesh":1,"rotation":[0.7071068,0.0,0.0,0.7071067],"scale":[0.099999994,0.099999994,0.099999994],"name":"pokryshki007"},{"mesh":2,"rotation":[0.7071068,0.0,0.0,0.7071067],"scale":[0.099999994,0.099999994,0.099999994],"name":"stoiki007"},{"name":"Default light"}],"meshes":[{"primitives":[{"attributes":{"POSITION":1,"NORMAL":2,"TEXCOORD_0":3},"indices":0}],"name":"baza006"},{"primitives":[{"attributes":{"POSITION":5,"NORMAL":6,"TEXCOORD_0":7},"indices":4}],"name":"pokryshki007"},{"primitives":[{"attributes":{"POSITION":9,"NORMAL":10,"TEXCOORD_0":11},"indices":8}],"name":"stoiki007"}],"accessors":[{"bufferView":0,"componentType":5125,"count":75045,"type":"SCALAR","name":"accessorIndices"},{"bufferView":1,"componentType":5126,"count":75045,"max":[8.862185,2.82499957,-0.77],"min":[-8.862185,-2.82500029,-8.275],"type":"VEC3","name":"accessorPositions"},{"bufferView":1,"byteOffset":900540,"componentType":5126,"count":75045,"type":"VEC3","name":"accessorNormals"},{"bufferView":2,"componentType":5126,"count":75045,"type":"VEC2","name":"accessorUVs"},{"bufferView":0,"byteOffset":300180,"componentType":5123,"count":51606,"type":"SCALAR","name":"accessorIndices"},{"bufferView":1,"byteOffset":1801080,"componentType":5126,"count":51606,"max":[7.66256142,3.30599451,-9.124756E-05],"min":[-6.58693171,-3.30536127,-2.14898944],"type":"VEC3","name":"accessorPositions"},{"bufferView":1,"byteOffset":2420352,"componentType":5126,"count":51606,"type":"VEC3","name":"accessorNormals"},{"bufferView":2,"byteOffset":600360,"componentType":5126,"count":51606,"type":"VEC2","name":"accessorUVs"},{"bufferView":0,"byteOffset":403392,"componentType":5125,"count":135501,"type":"SCALAR","name":"accessorIndices"},{"bufferView":1,"byteOffset":3039624,"componentType":5126,"count":135501,"max":[8.052815,3.38899946,-0.214999989],"min":[-7.52489376,-3.38900018,-5.291372],"type":"VEC3","name":"accessorPositions"},{"bufferView":1,"byteOffset":4665636,"componentType":5126,"count":135501,"type":"VEC3","name":"accessorNormals"},{"bufferView":2,"byteOffset":1013208,"componentType":5126,"count":135501,"type":"VEC2","name":"accessorUVs"}],"bufferViews":[{"buffer":0,"byteLength":945396,"name":"bufferViewScalar"},{"buffer":0,"byteOffset":945396,"byteLength":6291648,"byteStride":12,"name":"bufferViewFloatVec3"},{"buffer":0,"byteOffset":7237044,"byteLength":2097216,"byteStride":8,"name":"bufferViewFloatVec2"}],"buffers":[{"uri":"p2r.bin","byteLength":9334260}]}